<?xml version="1.0" standalone="no"?><!DOCTYPE svg PUBLIC "-//W3C//DTD SVG 1.1//EN" "http://www.w3.org/Graphics/SVG/1.1/DTD/svg11.dtd"><svg t="1747547180962" class="icon" viewBox="0 0 1024 1024" version="1.1" xmlns="http://www.w3.org/2000/svg" p-id="19239" xmlns:xlink="http://www.w3.org/1999/xlink" width="24" height="24"><path d="M511.219 510.612m-506.88 0a506.88 506.88 0 1 0 1013.76 0 506.88 506.88 0 1 0-1013.76 0Z" fill="#0D2485" p-id="19240"></path><path d="M723.674 150.824a43.373 48.103 0 0 1 0 68.037l-39.66 43.947h40.597a130.118 144.31 0 0 1 130.117 144.348v288.619a130.118 144.31 0 0 1-130.117 144.31H290.886a130.118 144.31 0 0 1-130.118-144.31V407.156a130.118 144.31 0 0 1 130.118-144.31h40.457l-39.59-43.947a43.373 48.103 0 1 1 61.312-68.037l92.019 102.056a47.282 47.282 0 0 1 6.87 9.89h111.485c1.839-3.54 4.163-6.927 6.904-9.929l91.985-102.055a43.373 48.103 0 0 1 61.346 0z m0.937 208.575H290.886a43.373 48.103 0 0 0-43.269 44.524l-0.104 3.618V696.16c0 25.36 17.696 46.14 40.146 47.95l3.227 0.153H724.61a43.373 48.103 0 0 0 43.268-44.524l0.104-3.579V407.54c0-26.552-19.43-48.102-43.372-48.102z m-346.98 96.207c23.941 0 43.372 21.55 43.372 48.103v48.103a43.373 48.103 0 1 1-86.745 0v-48.103c0-26.553 19.431-48.104 43.373-48.104z m260.235 0c23.942 0 43.372 21.55 43.372 48.103v48.103a43.373 48.103 0 1 1-86.745 0v-48.103c0-26.553 19.431-48.104 43.373-48.104z" fill="#FFFFFF" p-id="19241"></path><path d="M329.946 528.912a61.831 94.373 0 1 0 123.662 0 61.831 94.373 0 1 0-123.662 0Z" fill="#FFD400" p-id="19242"></path></svg>