<svg version="1.1" id="Layer_1" xmlns="http://www.w3.org/2000/svg" xmlns:xlink="http://www.w3.org/1999/xlink" x="0px" y="0px"
	 width="100%" viewBox="0 0 195 195" enable-background="new 0 0 195 195" xml:space="preserve">
<path fill="#FCFCFC" opacity="1.000000" stroke="none" 
	d="
M196.000000,79.000000 
	C196.000000,91.687561 196.000000,104.375122 195.654282,117.231201 
	C194.878647,118.056236 194.192474,118.663834 194.056396,119.376472 
	C190.801453,136.422562 182.945633,151.244003 171.420547,163.959473 
	C157.262009,179.580383 139.954681,190.135742 118.965668,194.111969 
	C118.539841,194.192657 118.317352,195.346710 118.000000,196.000000 
	C105.312439,196.000000 92.624878,196.000000 79.768585,195.654205 
	C79.109177,194.887726 78.670013,194.188354 78.120354,194.086761 
	C59.641895,190.670914 43.942387,181.934647 30.534643,168.993942 
	C16.220257,155.178177 6.677650,138.654663 2.885757,118.969589 
	C2.803239,118.541206 1.652454,118.318604 1.000000,118.000000 
	C1.000000,105.312439 1.000000,92.624878 1.345837,79.768440 
	C2.112096,79.108665 2.810782,78.669312 2.912642,78.119415 
	C6.334884,59.644260 15.064185,43.941444 28.006182,30.534134 
	C41.822796,16.220766 58.345490,6.677574 78.030449,2.885781 
	C78.458824,2.803265 78.681419,1.652462 79.000000,1.000000 
	C91.687561,1.000000 104.375122,1.000000 117.231041,1.345663 
	C117.889801,2.112231 118.328758,2.812412 118.878052,2.913598 
	C137.362076,6.318594 153.055237,15.067392 166.464264,28.005295 
	C180.781525,41.819530 190.317917,58.347218 194.114212,78.030380 
	C194.196854,78.458878 195.347549,78.681396 196.000000,79.000000 
M168.015228,122.648247 
	C167.987427,123.083366 167.959641,123.518486 167.504776,124.380302 
	C167.650131,125.272186 167.795471,126.164078 168.018494,127.736641 
	C169.381500,129.479141 170.744507,131.221649 172.327209,133.567719 
	C174.996277,138.613022 176.969925,136.027054 179.413895,132.680084 
	C179.671036,132.160812 179.928192,131.641556 180.765427,130.766953 
	C183.677017,128.567490 183.677002,126.302513 182.632675,122.655884 
	C180.407028,114.884369 179.009277,106.807320 178.056107,98.762604 
	C177.359741,92.885178 177.914810,86.859489 178.617859,80.727821 
	C186.631790,78.158981 189.475601,71.901443 186.055374,64.362213 
	C182.658310,56.874035 172.000046,51.354652 163.325409,53.827663 
	C158.104202,55.316143 153.483459,58.910915 148.657257,61.524288 
	C146.782990,57.150887 144.998993,51.545284 142.096863,46.595226 
	C138.750320,40.887161 133.938889,37.194077 126.388618,38.893585 
	C121.435432,40.008511 117.355026,36.173576 116.624016,31.195135 
	C115.609146,24.283367 114.108459,17.443142 113.083229,10.532608 
	C112.484581,6.497381 109.973984,4.758798 106.523735,5.472006 
	C99.256302,6.974274 92.033714,8.840428 84.963333,11.092811 
	C80.849815,12.403237 80.164703,15.443760 82.298180,19.470463 
	C85.212730,24.971325 87.621735,30.740044 90.697136,37.362232 
	C87.889908,36.479977 86.209991,35.936745 84.520828,35.423954 
	C79.049217,33.762901 73.488708,33.176384 68.877800,37.170834 
	C65.793800,39.842506 62.346462,42.972572 61.009453,46.612873 
	C57.478180,56.227531 54.886612,66.198318 52.151241,76.091003 
	C49.742409,84.802773 47.644859,93.600609 45.409847,102.360435 
	C44.875534,102.340317 44.341225,102.320198 43.806915,102.300079 
	C43.152985,101.061943 42.461075,99.842201 41.851242,98.582718 
	C37.647038,89.899681 30.558292,85.166344 21.145800,84.226524 
	C13.433939,83.456520 7.620346,87.406128 5.592211,94.002831 
	C4.100494,98.854774 6.398710,103.628357 13.619936,107.294449 
	C22.799738,111.954857 29.091694,118.983429 34.219624,127.659767 
	C35.962265,130.608292 39.068695,133.677979 42.195004,134.674149 
	C47.487598,136.360565 50.126095,139.553757 51.767826,144.421371 
	C53.874794,150.668350 58.237846,154.202881 64.985039,153.422180 
	C70.224030,152.816010 75.385384,151.499313 80.561905,150.406799 
	C83.954224,149.690826 87.293030,148.224594 90.688866,148.114532 
	C101.172699,147.774750 111.672607,147.882065 122.165680,147.934494 
	C123.566353,147.941483 125.128716,148.350037 126.335762,149.053711 
	C134.433090,153.774109 140.015182,153.572678 146.483871,146.731247 
	C157.965454,134.588013 166.704300,121.144516 161.108688,103.243721 
	C158.485977,94.853432 161.826843,88.591217 167.458801,83.156433 
	C168.928619,81.738068 171.751373,81.721710 173.936874,81.988930 
	C174.163391,93.495651 174.746658,105.042130 169.926193,116.666862 
	C169.589905,117.758018 169.253616,118.849182 168.499191,120.343674 
	C168.387070,120.899071 168.274948,121.454460 168.015228,122.648247 
M109.286041,167.431320 
	C107.711426,169.290237 106.136803,171.149155 104.251228,173.375183 
	C109.877167,175.283401 107.435127,177.776169 105.280121,180.105408 
	C106.647705,181.074310 107.739952,181.848145 108.809105,182.605606 
	C108.037064,184.139633 107.427048,185.351715 106.817032,186.563797 
	C108.808350,186.718781 110.937447,186.320358 111.282318,185.311813 
	C112.476219,181.820450 114.562935,182.941803 116.227867,184.211761 
	C115.751114,185.359375 115.274368,186.506973 114.797607,187.654572 
	C115.981461,187.979324 117.169060,188.588150 118.348442,188.572632 
	C121.250908,188.534424 124.149597,188.209213 126.150085,188.064499 
	C126.810654,185.361877 127.331375,183.317932 127.796974,181.261490 
	C127.904037,180.788589 128.032074,180.111267 127.794235,179.801682 
	C125.342346,176.610092 126.690521,173.840637 128.342255,170.817200 
	C129.784256,168.177628 129.289413,165.620941 125.640976,165.672836 
	C121.376282,165.733521 117.119705,166.365829 112.302139,166.756424 
	C111.533875,167.174286 110.765610,167.592163 109.286041,167.431320 
M79.607719,185.094803 
	C80.474159,185.519119 82.020905,186.414352 82.103012,186.295731 
	C83.041161,184.940445 83.973709,183.502045 84.483597,181.946747 
	C85.425209,179.074539 86.762924,177.719238 90.201363,178.121979 
	C94.158989,178.585556 93.106995,181.408585 93.680855,183.585495 
	C94.104973,185.194321 94.609283,186.782028 95.077873,188.379135 
	C95.733299,188.264984 96.388725,188.150833 97.044151,188.036697 
	C97.044151,185.850983 96.592827,183.534271 97.177986,181.518433 
	C97.705818,179.700104 99.368172,178.211121 100.541695,176.560699 
	C95.490555,172.186859 95.317322,171.291870 99.021935,165.111282 
	C92.443336,165.220108 86.242218,163.397552 79.410141,166.540161 
	C86.630722,171.867462 80.538780,174.079590 77.159348,177.127548 
	C79.203362,177.822174 80.516830,178.268539 82.237869,178.853394 
	C81.372108,180.839401 80.591400,182.630310 79.607719,185.094803 
z"/>
<path fill="#000000" opacity="1.000000" stroke="none" 
	d="
M78.531342,1.000000 
	C78.681419,1.652462 78.458824,2.803265 78.030449,2.885781 
	C58.345490,6.677574 41.822796,16.220766 28.006182,30.534134 
	C15.064185,43.941444 6.334884,59.644260 2.912642,78.119415 
	C2.810782,78.669312 2.112096,79.108665 1.345837,79.299782 
	C1.000000,53.073109 1.000000,27.146219 1.000000,1.000000 
	C26.687145,1.000000 52.374912,1.000000 78.531342,1.000000 
z"/>
<path fill="#000000" opacity="1.000000" stroke="none" 
	d="
M118.468658,196.000000 
	C118.317352,195.346710 118.539841,194.192657 118.965668,194.111969 
	C139.954681,190.135742 157.262009,179.580383 171.420547,163.959473 
	C182.945633,151.244003 190.801453,136.422562 194.056396,119.376472 
	C194.192474,118.663834 194.878647,118.056236 195.654282,117.699860 
	C196.000000,143.926880 196.000000,169.853760 196.000000,196.000000 
	C170.312851,196.000000 144.625092,196.000000 118.468658,196.000000 
z"/>
<path fill="#000000" opacity="1.000000" stroke="none" 
	d="
M1.000000,118.468658 
	C1.652454,118.318604 2.803239,118.541206 2.885757,118.969589 
	C6.677650,138.654663 16.220257,155.178177 30.534643,168.993942 
	C43.942387,181.934647 59.641895,190.670914 78.120354,194.086761 
	C78.670013,194.188354 79.109177,194.887726 79.299927,195.654205 
	C53.073116,196.000000 27.146233,196.000000 1.000000,196.000000 
	C1.000000,170.312851 1.000000,144.625092 1.000000,118.468658 
z"/>
<path fill="#000000" opacity="1.000000" stroke="none" 
	d="
M196.000000,78.531342 
	C195.347549,78.681396 194.196854,78.458878 194.114212,78.030380 
	C190.317917,58.347218 180.781525,41.819530 166.464264,28.005295 
	C153.055237,15.067392 137.362076,6.318594 118.878052,2.913598 
	C118.328758,2.812412 117.889801,2.112231 117.699699,1.345663 
	C143.926880,1.000000 169.853775,1.000000 196.000000,1.000000 
	C196.000000,26.687145 196.000000,52.374912 196.000000,78.531342 
z"/>
<path fill="#737373" opacity="1.000000" stroke="none" 
	d="
M173.952744,81.061440 
	C171.751373,81.721710 168.928619,81.738068 167.458801,83.156433 
	C161.826843,88.591217 158.485977,94.853432 161.108688,103.243721 
	C166.704300,121.144516 157.965454,134.588013 146.483871,146.731247 
	C140.015182,153.572678 134.433090,153.774109 126.335762,149.053711 
	C125.128716,148.350037 123.566353,147.941483 122.165680,147.934494 
	C111.672607,147.882065 101.172699,147.774750 90.688866,148.114532 
	C87.293030,148.224594 83.954224,149.690826 80.561905,150.406799 
	C75.385384,151.499313 70.224030,152.816010 64.985039,153.422180 
	C58.237846,154.202881 53.874794,150.668350 51.767826,144.421371 
	C50.126095,139.553757 47.487598,136.360565 42.195004,134.674149 
	C39.068695,133.677979 35.962265,130.608292 34.219624,127.659767 
	C29.091694,118.983429 22.799738,111.954857 13.619936,107.294449 
	C6.398710,103.628357 4.100494,98.854774 5.592211,94.002831 
	C7.620346,87.406128 13.433939,83.456520 21.145800,84.226524 
	C30.558292,85.166344 37.647038,89.899681 41.851242,98.582718 
	C42.461075,99.842201 43.152985,101.061943 43.806915,102.300079 
	C44.341225,102.320198 44.875534,102.340317 45.409847,102.360435 
	C47.644859,93.600609 49.742409,84.802773 52.151241,76.091003 
	C54.886612,66.198318 57.478180,56.227531 61.009453,46.612873 
	C62.346462,42.972572 65.793800,39.842506 68.877800,37.170834 
	C73.488708,33.176384 79.049217,33.762901 84.520828,35.423954 
	C86.209991,35.936745 87.889908,36.479977 90.697136,37.362232 
	C87.621735,30.740044 85.212730,24.971325 82.298180,19.470463 
	C80.164703,15.443760 80.849815,12.403237 84.963333,11.092811 
	C92.033714,8.840428 99.256302,6.974274 106.523735,5.472006 
	C109.973984,4.758798 112.484581,6.497381 113.083229,10.532608 
	C114.108459,17.443142 115.609146,24.283367 116.624016,31.195135 
	C117.355026,36.173576 121.435432,40.008511 126.388618,38.893585 
	C133.938889,37.194077 138.750320,40.887161 142.096863,46.595226 
	C144.998993,51.545284 146.782990,57.150887 148.657257,61.524288 
	C153.483459,58.910915 158.104202,55.316143 163.325409,53.827663 
	C172.000046,51.354652 182.658310,56.874035 186.055374,64.362213 
	C189.475601,71.901443 186.631790,78.158981 177.869431,80.785728 
	C176.064911,80.916237 175.008835,80.988838 173.952744,81.061440 
M62.554268,51.175461 
	C61.201118,54.925697 59.549030,58.598015 58.547672,62.439941 
	C54.653454,77.380943 51.136856,92.421562 47.144943,107.335510 
	C44.175514,118.429428 46.198608,128.391373 52.619465,137.689621 
	C53.272976,138.636002 53.724312,139.737122 54.174442,140.806427 
	C57.847710,149.532379 61.069191,151.368408 70.374542,149.551682 
	C73.620918,148.917877 76.748871,147.691177 79.946899,146.792175 
	C83.120872,145.899902 86.294037,144.447342 89.504028,144.340958 
	C100.977875,143.960739 112.467331,143.999039 123.950539,144.025269 
	C125.257202,144.028244 126.782356,144.676071 127.830193,145.501968 
	C133.186539,149.723770 136.800629,149.845139 142.167068,145.715393 
	C156.247238,134.880020 161.920685,116.297493 156.373703,98.386971 
	C152.042679,84.402664 147.558563,70.462578 142.881256,56.590916 
	C141.675400,53.014599 139.902664,49.460800 137.660904,46.437542 
	C133.015732,40.173035 128.079483,40.670395 124.059807,47.200825 
	C123.326714,48.391819 121.655464,49.989372 120.614586,49.856277 
	C108.836479,48.350197 96.624535,48.167534 86.706200,40.136242 
	C86.453453,39.931583 86.122513,39.816593 85.817307,39.684616 
	C77.391670,36.041420 70.574219,38.019260 65.468033,45.671085 
	C64.457924,47.184776 63.703976,48.869419 62.554268,51.175461 
M36.037071,95.552589 
	C31.347111,91.478409 26.568827,87.643776 19.835880,87.744194 
	C14.398273,87.825302 10.205126,90.509445 9.090525,94.918236 
	C7.848747,99.830078 11.605463,102.222893 14.778166,103.801247 
	C24.888344,108.830856 32.143223,116.367661 37.450382,126.209839 
	C38.769199,128.655609 41.546249,130.315063 44.464325,133.114197 
	C43.488071,126.730537 41.821747,121.953003 42.264523,117.379662 
	C43.042324,109.345833 40.023617,102.767410 36.037071,95.552589 
M152.452072,65.184982 
	C151.969315,66.576065 150.796204,68.157059 151.117996,69.326813 
	C152.943283,75.961929 155.126190,82.498680 157.440201,89.874763 
	C160.705612,85.693848 163.299484,82.372742 165.906891,79.034325 
	C164.340240,76.177620 160.014221,74.271172 163.114716,70.243294 
	C165.768646,72.667152 168.206940,74.894051 170.645233,77.120956 
	C170.972595,76.758347 171.299973,76.395737 171.627335,76.033127 
	C171.076721,74.538597 170.526108,73.044060 169.961761,71.512222 
	C174.984161,69.866188 174.730042,79.035347 180.668579,74.856941 
	C179.109375,73.097389 177.701797,71.508972 175.757462,69.314804 
	C177.356186,68.858627 178.530212,68.172432 179.598572,68.309532 
	C180.874771,68.473289 182.060547,69.341621 183.508438,70.007256 
	C182.714859,63.160191 178.902405,59.421925 171.007004,57.321400 
	C164.193695,55.508755 157.376953,58.233269 152.452072,65.184982 
M111.008492,17.720638 
	C110.606155,15.773115 110.514481,13.680337 109.695068,11.927823 
	C109.124397,10.707289 107.501198,9.068567 106.440681,9.133253 
	C98.842857,9.596686 91.482178,11.131728 84.601990,15.440385 
	C86.708145,19.986731 88.515823,24.238253 90.679153,28.300365 
	C91.187897,29.255634 93.035042,30.265676 94.031326,30.067635 
	C99.948753,28.891354 105.797043,27.367325 112.080635,25.861395 
	C111.806908,23.770712 111.466980,21.174324 111.008492,17.720638 
M96.853767,40.027527 
	C102.189835,39.110291 107.525894,38.193050 112.819077,37.283184 
	C113.643730,31.873287 113.406326,31.058283 110.327431,30.773630 
	C104.449432,30.230186 98.874901,31.179293 93.534164,34.942715 
	C94.431786,36.608528 95.269600,38.163361 96.853767,40.027527 
M118.414299,45.645157 
	C119.705139,44.628624 120.995987,43.612091 122.286827,42.595558 
	C121.960281,41.913048 121.633736,41.230534 121.307198,40.548023 
	C114.813988,41.095146 108.320778,41.642273 101.827568,42.189396 
	C101.826424,42.945049 101.825272,43.700703 101.824127,44.456356 
	C107.081055,44.787392 112.337982,45.118427 118.414299,45.645157 
z"/>
<path fill="#2B2B2B" opacity="1.000000" stroke="none" 
	d="
M79.709206,184.758011 
	C80.591400,182.630310 81.372108,180.839401 82.237869,178.853394 
	C80.516830,178.268539 79.203362,177.822174 77.159348,177.127548 
	C80.538780,174.079590 86.630722,171.867462 79.410141,166.540161 
	C86.242218,163.397552 92.443336,165.220108 99.021935,165.111282 
	C95.317322,171.291870 95.490555,172.186859 100.541695,176.560699 
	C99.368172,178.211121 97.705818,179.700104 97.177986,181.518433 
	C96.592827,183.534271 97.044151,185.850983 97.044151,188.036697 
	C96.388725,188.150833 95.733299,188.264984 95.077873,188.379135 
	C94.609283,186.782028 94.104973,185.194321 93.680855,183.585495 
	C93.106995,181.408585 94.158989,178.585556 90.201363,178.121979 
	C86.762924,177.719238 85.425209,179.074539 84.483597,181.946747 
	C83.973709,183.502045 83.041161,184.940445 82.103012,186.295731 
	C82.020905,186.414352 80.474159,185.519119 79.709206,184.758011 
M89.547615,174.797607 
	C95.012009,175.214767 92.784225,171.346390 93.214218,168.544830 
	C90.661568,168.544830 88.425903,168.544830 86.236244,168.544830 
	C85.556328,173.472687 85.556328,173.472687 89.547615,174.797607 
z"/>
<path fill="#202021" opacity="1.000000" stroke="none" 
	d="
M112.859612,166.750153 
	C117.119705,166.365829 121.376282,165.733521 125.640976,165.672836 
	C129.289413,165.620941 129.784256,168.177628 128.342255,170.817200 
	C126.690521,173.840637 125.342346,176.610092 127.794235,179.801682 
	C128.032074,180.111267 127.904037,180.788589 127.796974,181.261490 
	C127.331375,183.317932 126.810654,185.361877 126.150085,188.064499 
	C124.149597,188.209213 121.250908,188.534424 118.348442,188.572632 
	C117.169060,188.588150 115.981461,187.979324 114.797615,187.654572 
	C115.274368,186.506973 115.751114,185.359375 116.580414,183.719757 
	C116.300079,182.266174 115.667183,181.304626 115.373718,180.310516 
	C116.145081,178.171432 116.577019,176.064911 117.044830,173.624634 
	C116.879951,171.877792 116.679207,170.464722 115.973343,168.972931 
	C114.598686,168.179520 113.729149,167.464844 112.859612,166.750153 
M120.482170,172.582993 
	C120.482170,172.582993 120.417732,172.474136 120.482170,172.582993 
z"/>
<path fill="#C1C0C0" opacity="1.000000" stroke="none" 
	d="
M173.944809,81.525185 
	C175.008835,80.988838 176.064911,80.916237 177.516510,80.871765 
	C177.914810,86.859489 177.359741,92.885178 178.056107,98.762604 
	C179.009277,106.807320 180.407028,114.884369 182.632675,122.655884 
	C183.677002,126.302513 183.677017,128.567490 180.176285,130.807892 
	C179.016754,130.539444 178.446365,130.230057 177.972656,129.524673 
	C179.285767,124.630379 180.240921,120.153389 176.995224,115.650436 
	C176.977493,114.547455 176.965897,113.812134 176.926437,112.729004 
	C175.303436,110.344017 174.412643,110.746002 174.100098,113.486801 
	C174.049347,114.185898 174.008896,114.584496 173.634628,115.016403 
	C172.248932,115.370064 171.197037,115.690422 170.145157,116.010773 
	C174.746658,105.042130 174.163391,93.495651 173.944809,81.525185 
z"/>
<path fill="#333333" opacity="1.000000" stroke="none" 
	d="
M116.478462,169.051636 
	C116.679207,170.464722 116.879951,171.877792 116.668671,173.654114 
	C114.675758,174.979111 111.015213,171.253845 111.334221,175.896011 
	C111.441399,177.455750 113.738258,178.865021 115.034294,180.343063 
	C115.667183,181.304626 116.300079,182.266174 116.839073,183.461517 
	C114.562935,182.941803 112.476219,181.820450 111.282318,185.311813 
	C110.937447,186.320358 108.808350,186.718781 106.817032,186.563797 
	C107.427048,185.351715 108.037064,184.139633 108.809105,182.605606 
	C107.739952,181.848145 106.647705,181.074310 105.280121,180.105408 
	C107.435127,177.776169 109.877167,175.283401 104.251228,173.375183 
	C106.136803,171.149155 107.711426,169.290237 109.596191,168.078430 
	C110.874687,169.799210 111.843040,170.872864 113.207932,171.907928 
	C114.098396,170.684219 114.592316,169.499084 115.521561,168.333679 
	C116.130745,168.586136 116.304604,168.818893 116.478462,169.051636 
z"/>
<path fill="#C9C4B3" opacity="1.000000" stroke="none" 
	d="
M170.035675,116.338821 
	C171.197037,115.690422 172.248932,115.370064 173.603241,115.392136 
	C173.228012,117.762482 172.660339,119.835548 171.850266,121.809128 
	C170.039246,126.221245 171.757690,128.747620 176.322281,130.030167 
	C177.048096,129.984344 177.462036,129.952515 177.875977,129.920685 
	C178.446365,130.230057 179.016754,130.539444 179.886230,130.985550 
	C179.928192,131.641556 179.671036,132.160812 178.734192,132.835205 
	C176.072144,132.981613 174.089828,132.972885 172.107498,132.964157 
	C170.744507,131.221649 169.381500,129.479141 168.239365,127.203934 
	C168.284103,125.765358 168.107971,124.859482 167.931854,123.953606 
	C167.959641,123.518486 167.987427,123.083366 168.367615,122.285110 
	C168.785797,121.261429 168.851562,120.600883 168.917328,119.940346 
	C169.253616,118.849182 169.589905,117.758018 170.035675,116.338821 
z"/>
<path fill="#C3C3C3" opacity="1.000000" stroke="none" 
	d="
M115.973343,168.972931 
	C116.304604,168.818893 116.130745,168.586136 115.062698,168.124359 
	C113.716141,169.245728 113.263763,170.596130 112.811394,171.946533 
	C111.843040,170.872864 110.874687,169.799210 109.951843,168.367798 
	C110.765610,167.592163 111.533875,167.174286 112.580872,166.753296 
	C113.729149,167.464844 114.598686,168.179520 115.973343,168.972931 
z"/>
<path fill="#C1C0C0" opacity="1.000000" stroke="none" 
	d="
M172.217346,133.265930 
	C174.089828,132.972885 176.072144,132.981613 178.477509,132.979523 
	C176.969925,136.027054 174.996277,138.613022 172.217346,133.265930 
z"/>
<path fill="#C1C0C0" opacity="1.000000" stroke="none" 
	d="
M167.718307,124.166954 
	C168.107971,124.859482 168.284103,125.765358 168.200531,126.863602 
	C167.795471,126.164078 167.650131,125.272186 167.718307,124.166954 
z"/>
<path fill="#C1C0C0" opacity="1.000000" stroke="none" 
	d="
M168.708252,120.142014 
	C168.851562,120.600883 168.785797,121.261429 168.441422,121.965912 
	C168.274948,121.454460 168.387070,120.899071 168.708252,120.142014 
z"/>
<path fill="#030303" opacity="1.000000" stroke="none" 
	d="
M62.693081,50.825344 
	C63.703976,48.869419 64.457924,47.184776 65.468033,45.671085 
	C70.574219,38.019260 77.391670,36.041420 85.817307,39.684616 
	C86.122513,39.816593 86.453453,39.931583 86.706200,40.136242 
	C96.624535,48.167534 108.836479,48.350197 120.614586,49.856277 
	C121.655464,49.989372 123.326714,48.391819 124.059807,47.200825 
	C128.079483,40.670395 133.015732,40.173035 137.660904,46.437542 
	C139.902664,49.460800 141.675400,53.014599 142.881256,56.590916 
	C147.558563,70.462578 152.042679,84.402664 156.373703,98.386971 
	C161.920685,116.297493 156.247238,134.880020 142.167068,145.715393 
	C136.800629,149.845139 133.186539,149.723770 127.830193,145.501968 
	C126.782356,144.676071 125.257202,144.028244 123.950539,144.025269 
	C112.467331,143.999039 100.977875,143.960739 89.504028,144.340958 
	C86.294037,144.447342 83.120872,145.899902 79.946899,146.792175 
	C76.748871,147.691177 73.620918,148.917877 70.374542,149.551682 
	C61.069191,151.368408 57.847710,149.532379 54.174442,140.806427 
	C53.724312,139.737122 53.272976,138.636002 52.619465,137.689621 
	C46.198608,128.391373 44.175514,118.429428 47.144943,107.335510 
	C51.136856,92.421562 54.653454,77.380943 58.547672,62.439941 
	C59.549030,58.598015 61.201118,54.925697 62.693081,50.825344 
M114.816055,89.113930 
	C114.208939,89.415131 113.601814,89.716331 112.389732,90.021492 
	C111.523369,89.520576 110.656998,89.019661 109.858040,87.794441 
	C108.901031,87.529381 107.944016,87.264320 106.285492,86.943169 
	C105.355942,86.284653 104.357361,85.704346 103.508118,84.954834 
	C98.268936,80.330910 92.728661,79.580032 87.263847,83.786644 
	C83.249123,86.877045 79.780151,90.770859 76.502197,94.671539 
	C75.392021,95.992615 75.611397,98.431000 75.223190,100.358788 
	C76.675911,99.130684 78.367928,98.094994 79.538101,96.639702 
	C83.647148,91.529480 87.547577,86.235451 94.890297,84.818962 
	C94.890297,87.407494 94.890297,89.357552 94.890297,91.307602 
	C96.711716,90.033447 98.533142,88.759300 101.036873,87.007851 
	C101.036873,88.484344 101.342476,89.804291 100.977493,90.901100 
	C100.020821,93.776031 95.673553,96.237312 100.168663,99.717697 
	C100.375687,99.877991 99.562187,101.943184 98.794258,102.662270 
	C96.753220,104.573524 94.404793,106.153297 92.322411,108.024895 
	C91.159698,109.069901 90.283470,110.433647 89.278152,111.653770 
	C90.902275,111.546997 93.121414,112.082642 94.048828,111.223656 
	C98.358398,107.232063 102.310196,102.854195 107.125381,98.419174 
	C111.041725,95.966003 114.850334,94.368996 119.393997,97.478859 
	C121.209953,98.721764 123.856293,98.751442 126.124626,99.333382 
	C126.419373,96.958717 126.981461,94.580414 126.949272,92.210190 
	C126.894241,88.159302 124.755562,86.561043 120.742722,87.780930 
	C119.019814,88.304680 117.271843,88.745964 114.816055,89.113930 
M87.674095,76.096657 
	C91.064621,80.555962 98.908607,79.114426 102.195374,75.389099 
	C106.046806,71.023750 106.510345,64.138832 102.860184,60.072170 
	C99.278671,56.081989 92.212883,55.821415 87.976707,59.523293 
	C82.548805,64.266586 82.266525,69.442764 87.674095,76.096657 
M121.779976,66.713028 
	C120.013756,71.859474 121.019974,76.782219 124.234161,78.719612 
	C129.201889,81.713966 135.918121,80.430901 138.891235,75.919525 
	C141.612473,71.790337 140.241959,64.756721 136.200104,62.108406 
	C130.760025,58.543938 126.172218,59.807426 121.779976,66.713028 
z"/>
<path fill="#050505" opacity="1.000000" stroke="none" 
	d="
M36.269684,95.839645 
	C40.023617,102.767410 43.042324,109.345833 42.264523,117.379662 
	C41.821747,121.953003 43.488071,126.730537 44.464325,133.114197 
	C41.546249,130.315063 38.769199,128.655609 37.450382,126.209839 
	C32.143223,116.367661 24.888344,108.830856 14.778166,103.801247 
	C11.605463,102.222893 7.848747,99.830078 9.090525,94.918236 
	C10.205126,90.509445 14.398273,87.825302 19.835880,87.744194 
	C26.568827,87.643776 31.347111,91.478409 36.269684,95.839645 
z"/>
<path fill="#080808" opacity="1.000000" stroke="none" 
	d="
M152.665192,64.876022 
	C157.376953,58.233269 164.193695,55.508755 171.007004,57.321400 
	C178.902405,59.421925 182.714859,63.160191 183.508438,70.007256 
	C182.060547,69.341621 180.874771,68.473289 179.598572,68.309532 
	C178.530212,68.172432 177.356186,68.858627 175.757462,69.314804 
	C177.701797,71.508972 179.109375,73.097389 180.668579,74.856941 
	C174.730042,79.035347 174.984161,69.866188 169.961761,71.512222 
	C170.526108,73.044060 171.076721,74.538597 171.627335,76.033127 
	C171.299973,76.395737 170.972595,76.758347 170.645233,77.120956 
	C168.206940,74.894051 165.768646,72.667152 163.114716,70.243294 
	C160.014221,74.271172 164.340240,76.177620 165.906891,79.034325 
	C163.299484,82.372742 160.705612,85.693848 157.440201,89.874763 
	C155.126190,82.498680 152.943283,75.961929 151.117996,69.326813 
	C150.796204,68.157059 151.969315,66.576065 152.665192,64.876022 
z"/>
<path fill="#060606" opacity="1.000000" stroke="none" 
	d="
M111.067764,18.149286 
	C111.466980,21.174324 111.806908,23.770712 112.080635,25.861395 
	C105.797043,27.367325 99.948753,28.891354 94.031326,30.067635 
	C93.035042,30.265676 91.187897,29.255634 90.679153,28.300365 
	C88.515823,24.238253 86.708145,19.986731 84.601990,15.440385 
	C91.482178,11.131728 98.842857,9.596686 106.440681,9.133253 
	C107.501198,9.068567 109.124397,10.707289 109.695068,11.927823 
	C110.514481,13.680337 110.606155,15.773115 111.067764,18.149286 
z"/>
<path fill="#F3F3F3" opacity="1.000000" stroke="none" 
	d="
M96.480591,39.872860 
	C95.269600,38.163361 94.431786,36.608528 93.534164,34.942715 
	C98.874901,31.179293 104.449432,30.230186 110.327431,30.773630 
	C113.406326,31.058283 113.643730,31.873287 112.819077,37.283184 
	C107.525894,38.193050 102.189835,39.110291 96.480591,39.872860 
z"/>
<path fill="#161616" opacity="1.000000" stroke="none" 
	d="
M118.004608,45.547310 
	C112.337982,45.118427 107.081055,44.787392 101.824127,44.456356 
	C101.825272,43.700703 101.826424,42.945049 101.827568,42.189396 
	C108.320778,41.642273 114.813988,41.095146 121.307198,40.548023 
	C121.633736,41.230534 121.960281,41.913048 122.286827,42.595558 
	C120.995987,43.612091 119.705139,44.628624 118.004608,45.547310 
z"/>
<path fill="#D8D8D8" opacity="1.000000" stroke="none" 
	d="
M89.109741,174.768784 
	C85.556328,173.472687 85.556328,173.472687 86.236244,168.544830 
	C88.425903,168.544830 90.661568,168.544830 93.214218,168.544830 
	C92.784225,171.346390 95.012009,175.214767 89.109741,174.768784 
z"/>
<path fill="#A0A0A2" opacity="1.000000" stroke="none" 
	d="
M115.373718,180.310516 
	C113.738258,178.865021 111.441399,177.455750 111.334221,175.896011 
	C111.015213,171.253845 114.675758,174.979111 116.632805,173.987869 
	C116.577019,176.064911 116.145081,178.171432 115.373718,180.310516 
z"/>
<path fill="#242425" opacity="1.000000" stroke="none" 
	d="
M120.449951,172.528564 
	C120.417732,172.474136 120.482170,172.582993 120.449951,172.528564 
z"/>
<path fill="#F2ED97" opacity="1.000000" stroke="none" 
	d="
M176.010406,130.044159 
	C171.757690,128.747620 170.039246,126.221245 171.850266,121.809128 
	C172.660339,119.835548 173.228012,117.762482 173.937073,115.358826 
	C174.008896,114.584496 174.049347,114.185898 174.452377,113.436646 
	C175.528076,113.082932 176.241180,113.079872 176.954300,113.076813 
	C176.965897,113.812134 176.977493,114.547455 176.839111,116.000618 
	C176.462875,121.160362 176.236633,125.602257 176.010406,130.044159 
z"/>
<path fill="#F7F6B5" opacity="1.000000" stroke="none" 
	d="
M176.322281,130.030167 
	C176.236633,125.602257 176.462875,121.160362 176.845230,116.368279 
	C180.240921,120.153389 179.285767,124.630379 177.972656,129.524673 
	C177.462036,129.952515 177.048096,129.984344 176.322281,130.030167 
z"/>
<path fill="#C9C4B3" opacity="1.000000" stroke="none" 
	d="
M176.926437,112.729004 
	C176.241180,113.079872 175.528076,113.082932 174.462677,113.136139 
	C174.412643,110.746002 175.303436,110.344017 176.926437,112.729004 
z"/>
<path fill="#242425" opacity="1.000000" stroke="none" 
	d="
M113.207932,171.907928 
	C113.263763,170.596130 113.716141,169.245728 114.627365,168.104645 
	C114.592316,169.499084 114.098396,170.684219 113.207932,171.907928 
z"/>
<path fill="#656568" opacity="1.000000" stroke="none" 
	d="
M106.390045,98.614578 
	C102.310196,102.854195 98.358398,107.232063 94.048828,111.223656 
	C93.121414,112.082642 90.902275,111.546997 89.278152,111.653770 
	C90.283470,110.433647 91.159698,109.069901 92.322411,108.024895 
	C94.404793,106.153297 96.753220,104.573524 98.794258,102.662270 
	C99.562187,101.943184 100.375687,99.877991 100.168663,99.717697 
	C95.673553,96.237312 100.020821,93.776031 100.977493,90.901100 
	C101.342476,89.804291 101.036873,88.484344 101.036873,87.007851 
	C98.533142,88.759300 96.711716,90.033447 94.890297,91.307602 
	C94.890297,89.357552 94.890297,87.407494 94.890297,84.818962 
	C87.547577,86.235451 83.647148,91.529480 79.538101,96.639702 
	C78.367928,98.094994 76.675911,99.130684 75.223190,100.358788 
	C75.611397,98.431000 75.392021,95.992615 76.502197,94.671539 
	C79.780151,90.770859 83.249123,86.877045 87.263847,83.786644 
	C92.728661,79.580032 98.268936,80.330910 103.508118,84.954834 
	C104.357361,85.704346 105.355942,86.284653 106.683105,87.180435 
	C107.080711,87.417702 107.166580,87.837700 106.772537,87.967613 
	C106.382347,91.603210 106.386200,95.108894 106.390045,98.614578 
z"/>
<path fill="#D5D5D5" opacity="1.000000" stroke="none" 
	d="
M87.387009,75.849113 
	C82.266525,69.442764 82.548805,64.266586 87.976707,59.523293 
	C92.212883,55.821415 99.278671,56.081989 102.860184,60.072170 
	C106.510345,64.138832 106.046806,71.023750 102.195374,75.389099 
	C98.908607,79.114426 91.064621,80.555962 87.387009,75.849113 
M93.670959,74.295540 
	C98.827026,73.872726 101.539131,71.584541 101.651016,67.358177 
	C101.739914,64.000435 100.292030,61.490665 96.856567,60.740692 
	C92.948906,59.887638 88.630264,62.581730 87.684387,66.633430 
	C86.711922,70.799011 88.918907,73.186287 93.670959,74.295540 
z"/>
<path fill="#817CB3" opacity="1.000000" stroke="none" 
	d="
M106.757713,98.516876 
	C106.386200,95.108894 106.382347,91.603210 107.102676,88.046143 
	C108.481453,88.169426 109.136040,88.344086 109.790634,88.518745 
	C110.656998,89.019661 111.523369,89.520576 113.037109,90.116714 
	C114.301407,89.882866 114.918327,89.553787 115.535255,89.224709 
	C117.271843,88.745964 119.019814,88.304680 120.742722,87.780930 
	C124.755562,86.561043 126.894241,88.159302 126.949272,92.210190 
	C126.981461,94.580414 126.419373,96.958717 126.124634,99.333382 
	C123.856293,98.751442 121.209953,98.721764 119.393997,97.478859 
	C114.850334,94.368996 111.041725,95.966003 106.757713,98.516876 
z"/>
<path fill="#D8D8D8" opacity="1.000000" stroke="none" 
	d="
M121.944138,66.351181 
	C126.172218,59.807426 130.760025,58.543938 136.200104,62.108406 
	C140.241959,64.756721 141.612473,71.790337 138.891235,75.919525 
	C135.918121,80.430901 129.201889,81.713966 124.234161,78.719612 
	C121.019974,76.782219 120.013756,71.859474 121.944138,66.351181 
M133.342651,75.919891 
	C136.871078,73.877014 137.585037,70.693726 135.709854,67.493408 
	C134.739700,65.837685 131.641724,63.692192 130.597336,64.167580 
	C128.210983,65.253807 125.674988,67.476685 124.689903,69.855064 
	C122.922966,74.121124 126.676903,76.917160 133.342651,75.919891 
z"/>
<path fill="#0D0C16" opacity="1.000000" stroke="none" 
	d="
M109.824341,88.156593 
	C109.136040,88.344086 108.481453,88.169426 107.496719,87.916229 
	C107.166580,87.837700 107.080711,87.417702 107.033859,87.208481 
	C107.944016,87.264320 108.901031,87.529381 109.824341,88.156593 
z"/>
<path fill="#0D0C16" opacity="1.000000" stroke="none" 
	d="
M115.175659,89.169319 
	C114.918327,89.553787 114.301407,89.882866 113.339584,90.114731 
	C113.601814,89.716331 114.208939,89.415131 115.175659,89.169319 
z"/>
<path fill="#111111" opacity="1.000000" stroke="none" 
	d="
M93.259476,74.253334 
	C88.918907,73.186287 86.711922,70.799011 87.684387,66.633430 
	C88.630264,62.581730 92.948906,59.887638 96.856567,60.740692 
	C100.292030,61.490665 101.739914,64.000435 101.651016,67.358177 
	C101.539131,71.584541 98.827026,73.872726 93.259476,74.253334 
z"/>
<path fill="#181818" opacity="1.000000" stroke="none" 
	d="
M133.000946,76.072479 
	C126.676903,76.917160 122.922966,74.121124 124.689903,69.855064 
	C125.674988,67.476685 128.210983,65.253807 130.597336,64.167580 
	C131.641724,63.692192 134.739700,65.837685 135.709854,67.493408 
	C137.585037,70.693726 136.871078,73.877014 133.000946,76.072479 
z"/>
</svg>